# xmcd CD database file
#
# Track frame offsets:
#	150
#	64097
#	88045
#	97865
#	137541
#
# Disc length: 2418 seconds
#
# Revision: 0
# Processed by: cddbd v1.5PL3 Copyright (c) Steve Scherf et al.
# Submitted via: CDex 1.51
#
DISCID=36097005
DTITLE=Thelonious Monk - Blue Monk
DYEAR=2000
DGENRE=Jazz
TTITLE0=Evidence
TTITLE1=Blue Monk
TTITLE2=Just a Gigolo
TTITLE3=Bolivar Blues
TTITLE4=Epistrofy
EXTD=YEAR: 2000
EXTT0=
EXTT1=
EXTT2=
EXTT3=
EXTT4=
PLAYORDER=
